<?xml version="1.0" encoding="utf-8"?><svg version="1.1" id="Layer_1" xmlns="http://www.w3.org/2000/svg" xmlns:xlink="http://www.w3.org/1999/xlink" x="0px" y="0px" viewBox="0 0 122.88 119.72" style="enable-background:new 0 0 122.88 119.72" xml:space="preserve"><style type="text/css"><![CDATA[
	.st0{fill:#EA9901;}
	.st1{fill-rule:evenodd;clip-rule:evenodd;fill:#EA9901;}
	.st2{fill:#FFED33;}
	.st3{fill-rule:evenodd;clip-rule:evenodd;fill:#FAC900;}
	.st4{fill-rule:evenodd;clip-rule:evenodd;fill:#FFED33;}
	.st5{fill-rule:evenodd;clip-rule:evenodd;fill:#D49000;}
]]></style><g><path class="st4" d="M65.99,62.85c15.71,0,28.44,12.73,28.44,28.44s-12.73,28.44-28.44,28.44c-15.71,0-28.44-12.73-28.44-28.44 S50.28,62.85,65.99,62.85L65.99,62.85z"/><path class="st1" d="M66.58,71.45c11.33,0,20.51,9.18,20.51,20.51s-9.18,20.51-20.51,20.51c-11.33,0-20.51-9.18-20.51-20.51 S55.25,71.45,66.58,71.45L66.58,71.45z"/><path class="st3" d="M67.09,62.87c1.85,0.07,3.66,0.32,5.41,0.73l-0.95,3.55c-1.44-0.33-2.93-0.54-4.46-0.6V62.87L67.09,62.87z M65.99,70.77c11.33,0,20.51,9.18,20.51,20.51s-9.18,20.51-20.51,20.51c-11.33,0-20.51-9.18-20.51-20.51S54.66,70.77,65.99,70.77 L65.99,70.77z M74.62,64.18c1.75,0.55,3.42,1.27,5,2.14l-1.84,3.18c-1.31-0.71-2.68-1.3-4.12-1.77L74.62,64.18L74.62,64.18z M81.51,67.45c1.52,0.99,2.93,2.12,4.23,3.38l-2.6,2.6c-1.07-1.03-2.23-1.96-3.47-2.79L81.51,67.45L81.51,67.45z M87.27,72.42 c1.19,1.34,2.25,2.79,3.17,4.33l-3.18,1.84c-0.76-1.27-1.63-2.46-2.59-3.57L87.27,72.42L87.27,72.42z M91.49,78.69 c0.78,1.58,1.42,3.24,1.9,4.97l-3.55,0.95c-0.4-1.41-0.91-2.78-1.54-4.08L91.49,78.69L91.49,78.69z M93.9,85.8 c0.33,1.7,0.51,3.45,0.53,5.24h-3.68c-0.01-1.46-0.15-2.89-0.41-4.28L93.9,85.8L93.9,85.8z M94.36,93.24 c-0.12,1.76-0.4,3.48-0.82,5.14l-3.55-0.95c0.35-1.35,0.58-2.75,0.69-4.19H94.36L94.36,93.24z M92.9,100.49 c-0.56,1.64-1.27,3.21-2.1,4.7l-3.18-1.84c0.68-1.21,1.26-2.49,1.73-3.82L92.9,100.49L92.9,100.49z M89.65,107.07 c-0.95,1.42-2.02,2.75-3.2,3.97l-2.6-2.6c0.96-0.99,1.83-2.07,2.61-3.21L89.65,107.07L89.65,107.07z M84.86,112.56 c-1.26,1.12-2.62,2.13-4.07,3.01l-1.84-3.19c1.17-0.72,2.27-1.53,3.3-2.43L84.86,112.56L84.86,112.56z M78.87,116.65 c-1.49,0.76-3.05,1.38-4.67,1.87l-0.95-3.55c1.31-0.4,2.57-0.91,3.78-1.51L78.87,116.65L78.87,116.65z M72.07,119.07 c-1.61,0.35-3.28,0.56-4.98,0.63v-3.68c1.37-0.06,2.72-0.23,4.02-0.51L72.07,119.07L72.07,119.07z M64.89,119.7 c-1.7-0.06-3.36-0.28-4.98-0.63l0.95-3.55c1.31,0.27,2.65,0.45,4.02,0.51V119.7L64.89,119.7z M57.78,118.52 c-1.62-0.49-3.18-1.12-4.67-1.87l1.84-3.19c1.21,0.6,2.47,1.11,3.78,1.51L57.78,118.52L57.78,118.52z M51.19,115.57 c-1.45-0.88-2.81-1.89-4.07-3.01l2.6-2.6c1.03,0.9,2.13,1.71,3.3,2.43L51.19,115.57L51.19,115.57z M45.53,111.04 c-1.18-1.22-2.25-2.55-3.2-3.97l3.19-1.84c0.78,1.14,1.65,2.22,2.61,3.21L45.53,111.04L45.53,111.04z M41.18,105.19 c-0.84-1.49-1.54-3.06-2.1-4.7l3.56-0.96c0.47,1.33,1.05,2.61,1.73,3.82L41.18,105.19L41.18,105.19z M38.44,98.38 c-0.43-1.66-0.7-3.38-0.82-5.14h3.68c0.11,1.43,0.35,2.83,0.69,4.19L38.44,98.38L38.44,98.38z M37.55,91.04 c0.02-1.79,0.2-3.54,0.53-5.24l3.56,0.95c-0.26,1.39-0.4,2.82-0.41,4.28H37.55L37.55,91.04z M38.59,83.66 c0.48-1.73,1.12-3.39,1.9-4.97l3.19,1.84c-0.63,1.3-1.15,2.67-1.54,4.08L38.59,83.66L38.59,83.66z M41.54,76.75 c0.92-1.54,1.98-3,3.17-4.33l2.6,2.6c-0.97,1.11-1.83,2.3-2.59,3.57L41.54,76.75L41.54,76.75z M46.24,70.83 c1.3-1.25,2.71-2.38,4.23-3.38l1.84,3.19c-1.24,0.82-2.4,1.76-3.47,2.79L46.24,70.83L46.24,70.83z M52.35,66.32 c1.58-0.87,3.26-1.59,5-2.14l0.95,3.55c-1.43,0.47-2.81,1.06-4.12,1.77L52.35,66.32L52.35,66.32z M59.48,63.6 c1.75-0.41,3.55-0.66,5.41-0.73v3.68c-1.53,0.07-3.02,0.27-4.46,0.6L59.48,63.6L59.48,63.6z"/><path class="st0" d="M63.22,86.84l-5.76-1.03c0.48-1.83,1.39-3.24,2.76-4.22c1.36-0.97,3.28-1.46,5.77-1.46 c2.86,0,4.92,0.53,6.2,1.6c1.27,1.07,1.91,2.41,1.91,4.02c0,0.95-0.26,1.8-0.78,2.57s-1.29,1.44-2.33,2.02 c0.85,0.21,1.5,0.46,1.94,0.73c0.73,0.45,1.29,1.04,1.7,1.77c0.4,0.73,0.61,1.61,0.61,2.62c0,1.28-0.33,2.5-1,3.68 c-0.67,1.17-1.63,2.07-2.88,2.71s-2.91,0.95-4.95,0.95c-1.99,0-3.56-0.23-4.71-0.7c-1.15-0.47-2.1-1.15-2.84-2.06 c-0.74-0.9-1.31-2.04-1.71-3.41l6.1-0.81c0.24,1.23,0.61,2.09,1.11,2.56c0.5,0.47,1.14,0.71,1.92,0.71c0.81,0,1.49-0.3,2.04-0.9 c0.54-0.6,0.81-1.39,0.81-2.39c0-1.02-0.26-1.8-0.78-2.36c-0.52-0.56-1.23-0.84-2.12-0.84c-0.48,0-1.13,0.12-1.97,0.36l0.32-4.36 c0.33,0.05,0.59,0.08,0.78,0.08c0.79,0,1.45-0.25,1.97-0.76c0.53-0.51,0.79-1.1,0.79-1.8c0-0.67-0.2-1.2-0.59-1.59 c-0.4-0.4-0.94-0.6-1.63-0.6c-0.71,0-1.29,0.21-1.74,0.65C63.68,85.01,63.38,85.77,63.22,86.84L63.22,86.84z"/><path class="st2" d="M62.17,86.17l-5.76-1.03c0.48-1.83,1.39-3.24,2.76-4.22c1.36-0.97,3.28-1.46,5.77-1.46 c2.86,0,4.92,0.53,6.2,1.6c1.27,1.07,1.91,2.41,1.91,4.02c0,0.95-0.26,1.8-0.78,2.57s-1.29,1.44-2.33,2.02 c0.85,0.21,1.5,0.46,1.94,0.73c0.73,0.45,1.29,1.04,1.7,1.77c0.4,0.73,0.61,1.61,0.61,2.62c0,1.28-0.33,2.5-1,3.68 c-0.67,1.17-1.63,2.07-2.88,2.71s-2.9,0.95-4.95,0.95c-1.99,0-3.56-0.23-4.71-0.7c-1.15-0.47-2.1-1.15-2.84-2.06 c-0.74-0.9-1.31-2.04-1.71-3.41l6.1-0.81c0.24,1.23,0.61,2.09,1.11,2.56c0.5,0.47,1.14,0.71,1.92,0.71c0.81,0,1.49-0.3,2.04-0.9 c0.54-0.6,0.81-1.39,0.81-2.39c0-1.02-0.26-1.8-0.78-2.36c-0.52-0.56-1.23-0.84-2.13-0.84c-0.47,0-1.13,0.12-1.96,0.36l0.32-4.36 c0.33,0.05,0.59,0.08,0.78,0.08c0.79,0,1.45-0.25,1.97-0.76c0.53-0.51,0.79-1.1,0.79-1.8c0-0.67-0.2-1.2-0.59-1.59 c-0.4-0.4-0.95-0.6-1.63-0.6c-0.71,0-1.29,0.21-1.74,0.65C62.63,84.34,62.33,85.09,62.17,86.17L62.17,86.17z"/><path class="st4" d="M90.79,17.75c17.72,0,32.09,14.37,32.09,32.1c0,17.73-14.37,32.1-32.09,32.1c-17.73,0-32.1-14.37-32.1-32.1 C58.69,32.12,73.06,17.75,90.79,17.75L90.79,17.75z"/><path class="st1" d="M91.45,27.46c12.78,0,23.15,10.36,23.15,23.15c0,12.79-10.37,23.15-23.15,23.15 c-12.79,0-23.15-10.36-23.15-23.15C68.3,37.83,78.67,27.46,91.45,27.46L91.45,27.46z"/><path class="st3" d="M92.03,17.78c2.09,0.08,4.13,0.36,6.1,0.82l-1.07,4.01c-1.63-0.37-3.31-0.6-5.03-0.68V17.78L92.03,17.78z M90.79,26.7c12.78,0,23.15,10.36,23.15,23.15c0,12.79-10.37,23.15-23.15,23.15C78,73,67.64,62.63,67.64,49.85 C67.64,37.06,78,26.7,90.79,26.7L90.79,26.7z M100.53,19.26c1.97,0.63,3.86,1.44,5.65,2.42l-2.08,3.59c-1.47-0.8-3.03-1.47-4.65-2 L100.53,19.26L100.53,19.26z M108.3,22.95c1.71,1.12,3.31,2.39,4.78,3.81l-2.93,2.93c-1.21-1.16-2.52-2.21-3.92-3.14L108.3,22.95 L108.3,22.95z M114.8,28.56c1.34,1.51,2.54,3.15,3.58,4.89l-3.59,2.07c-0.86-1.43-1.83-2.78-2.92-4.03L114.8,28.56L114.8,28.56z M119.56,35.63c0.88,1.78,1.6,3.66,2.15,5.61l-4.01,1.07c-0.45-1.6-1.03-3.14-1.74-4.6L119.56,35.63L119.56,35.63z M122.28,43.66 c0.38,1.91,0.58,3.89,0.6,5.91h-4.15c-0.02-1.65-0.17-3.27-0.46-4.83L122.28,43.66L122.28,43.66z M122.8,52.05 c-0.13,1.99-0.45,3.93-0.93,5.8l-4.01-1.07c0.39-1.53,0.65-3.11,0.78-4.73H122.8L122.8,52.05z M121.16,60.24 c-0.63,1.85-1.43,3.63-2.38,5.3l-3.59-2.07c0.77-1.37,1.42-2.81,1.95-4.31L121.16,60.24L121.16,60.24z M117.48,67.66 c-1.07,1.6-2.28,3.1-3.61,4.48l-2.93-2.93c1.08-1.12,2.06-2.34,2.95-3.63L117.48,67.66L117.48,67.66z M112.08,73.86 c-1.42,1.26-2.96,2.4-4.59,3.4l-2.08-3.59c1.32-0.81,2.57-1.73,3.73-2.74L112.08,73.86L112.08,73.86z M105.32,78.47 c-1.68,0.85-3.44,1.56-5.27,2.11l-1.07-4.01c1.48-0.45,2.9-1.02,4.27-1.7L105.32,78.47L105.32,78.47z M97.64,81.21 c-1.82,0.4-3.7,0.64-5.62,0.71v-4.15c1.55-0.07,3.07-0.26,4.54-0.57L97.64,81.21L97.64,81.21z M89.54,81.92 c-1.92-0.07-3.8-0.31-5.62-0.71L85,77.2c1.47,0.31,2.99,0.5,4.54,0.57V81.92L89.54,81.92z M81.52,80.59 c-1.83-0.55-3.59-1.26-5.27-2.11l2.08-3.6c1.36,0.68,2.79,1.25,4.27,1.7L81.52,80.59L81.52,80.59z M74.08,77.26 c-1.63-1-3.17-2.13-4.59-3.4l2.94-2.94c1.16,1.01,2.41,1.93,3.73,2.74L74.08,77.26L74.08,77.26z M67.7,72.14 c-1.33-1.38-2.54-2.88-3.61-4.48l3.6-2.08c0.88,1.29,1.87,2.5,2.95,3.63L67.7,72.14L67.7,72.14z M62.78,65.54 c-0.94-1.68-1.74-3.46-2.37-5.3l4.02-1.08c0.53,1.5,1.18,2.94,1.95,4.31L62.78,65.54L62.78,65.54z M59.7,57.86 c-0.48-1.87-0.8-3.81-0.93-5.8h4.16c0.13,1.62,0.39,3.2,0.78,4.73L59.7,57.86L59.7,57.86z M58.69,49.57c0.02-2.02,0.22-4,0.6-5.91 l4.02,1.08c-0.29,1.57-0.45,3.18-0.46,4.83H58.69L58.69,49.57z M59.86,41.24c0.54-1.95,1.26-3.83,2.15-5.61l3.6,2.08 c-0.71,1.47-1.29,3.01-1.74,4.6L59.86,41.24L59.86,41.24z M63.19,33.45c1.04-1.74,2.24-3.38,3.58-4.89l2.94,2.94 c-1.09,1.25-2.07,2.6-2.93,4.03L63.19,33.45L63.19,33.45z M68.49,26.76c1.46-1.42,3.06-2.69,4.77-3.81l2.08,3.6 c-1.4,0.93-2.71,1.98-3.92,3.14L68.49,26.76L68.49,26.76z M75.4,21.68c1.79-0.98,3.67-1.79,5.65-2.42l1.07,4.01 c-1.62,0.53-3.17,1.2-4.65,2L75.4,21.68L75.4,21.68z M83.44,18.6c1.97-0.46,4.01-0.74,6.1-0.82v4.15c-1.72,0.08-3.4,0.3-5.03,0.68 L83.44,18.6L83.44,18.6z"/><path class="st0" d="M101.11,62.44H80.46c0.24-2.04,0.96-3.95,2.16-5.75c1.2-1.8,3.45-3.92,6.74-6.36c2.02-1.5,3.31-2.63,3.88-3.41 c0.56-0.78,0.85-1.52,0.85-2.21c0-0.75-0.28-1.4-0.84-1.94c-0.56-0.54-1.26-0.8-2.11-0.8c-0.88,0-1.6,0.28-2.15,0.83 c-0.56,0.56-0.93,1.53-1.12,2.94l-6.88-0.56c0.27-1.94,0.77-3.45,1.49-4.54s1.73-1.92,3.04-2.5c1.31-0.58,3.13-0.87,5.45-0.87 c2.42,0,4.3,0.28,5.65,0.83c1.34,0.55,2.4,1.39,3.17,2.54c0.77,1.15,1.16,2.43,1.16,3.84c0,1.5-0.44,2.94-1.32,4.32 c-0.88,1.37-2.49,2.88-4.82,4.52c-1.38,0.96-2.31,1.63-2.78,2.01c-0.47,0.39-1.01,0.88-1.65,1.5h10.75V62.44L101.11,62.44z"/><path class="st2" d="M99.92,61.67H79.28c0.24-2.04,0.96-3.95,2.15-5.75c1.2-1.8,3.45-3.92,6.74-6.36c2.02-1.5,3.31-2.63,3.88-3.41 c0.56-0.78,0.85-1.52,0.85-2.21c0-0.75-0.28-1.4-0.84-1.94c-0.56-0.54-1.26-0.8-2.11-0.8c-0.88,0-1.6,0.28-2.16,0.83 c-0.56,0.56-0.93,1.53-1.12,2.94l-6.88-0.56c0.27-1.94,0.77-3.45,1.49-4.54c0.72-1.09,1.73-1.92,3.04-2.5 c1.31-0.58,3.13-0.87,5.45-0.87c2.42,0,4.3,0.28,5.65,0.83c1.34,0.55,2.4,1.39,3.17,2.54c0.77,1.15,1.16,2.43,1.16,3.84 c0,1.5-0.44,2.94-1.33,4.32c-0.88,1.37-2.49,2.88-4.82,4.52c-1.38,0.96-2.31,1.63-2.78,2.01c-0.46,0.39-1.01,0.88-1.65,1.5h10.75 V61.67L99.92,61.67z"/><path class="st4" d="M41.13,0c22.72,0,41.13,18.42,41.13,41.13c0,22.72-18.42,41.13-41.13,41.13C18.42,82.26,0,63.85,0,41.13 C0,18.42,18.42,0,41.13,0L41.13,0z"/><path class="st1" d="M41.99,12.44c16.38,0,29.67,13.28,29.67,29.67S58.37,71.77,41.99,71.77c-16.38,0-29.67-13.28-29.67-29.67 S25.6,12.44,41.99,12.44L41.99,12.44z"/><path class="st3" d="M42.72,0.03c2.68,0.1,5.3,0.46,7.82,1.05l-1.38,5.14c-2.08-0.48-4.24-0.77-6.44-0.87V0.03L42.72,0.03z M41.13,11.47c16.38,0,29.67,13.28,29.67,29.67c0,16.38-13.28,29.67-29.67,29.67c-16.38,0-29.67-13.28-29.67-29.67 C11.47,24.75,24.75,11.47,41.13,11.47L41.13,11.47z M53.61,1.93c2.53,0.8,4.95,1.84,7.24,3.1l-2.66,4.6 c-1.89-1.02-3.88-1.88-5.96-2.56L53.61,1.93L53.61,1.93z M63.58,6.67c2.2,1.43,4.24,3.07,6.12,4.88l-3.76,3.76 c-1.55-1.49-3.23-2.84-5.02-4.03L63.58,6.67L63.58,6.67z M71.91,13.84c1.72,1.94,3.25,4.03,4.59,6.27l-4.61,2.66 c-1.1-1.83-2.35-3.56-3.75-5.16L71.91,13.84L71.91,13.84z M78.01,22.91c1.13,2.28,2.06,4.69,2.75,7.19l-5.14,1.38 c-0.57-2.05-1.32-4.02-2.23-5.9L78.01,22.91L78.01,22.91z M81.5,33.2c0.48,2.45,0.74,4.99,0.76,7.58h-5.32 c-0.02-2.11-0.22-4.19-0.6-6.2L81.5,33.2L81.5,33.2z M82.17,43.96c-0.17,2.55-0.58,5.04-1.19,7.44l-5.14-1.38 c0.5-1.96,0.84-3.98,1-6.06H82.17L82.17,43.96z M80.06,54.45c-0.81,2.37-1.83,4.65-3.04,6.8l-4.6-2.66c0.98-1.75,1.82-3.6,2.5-5.52 L80.06,54.45L80.06,54.45z M75.35,63.96c-1.37,2.05-2.92,3.97-4.63,5.74l-3.76-3.76c1.38-1.44,2.65-2.99,3.78-4.65L75.35,63.96 L75.35,63.96z M68.42,71.91c-1.82,1.62-3.79,3.08-5.88,4.35l-2.66-4.61c1.69-1.04,3.29-2.22,4.77-3.51L68.42,71.91L68.42,71.91z M59.76,77.81c-2.15,1.09-4.41,2-6.76,2.71l-1.38-5.14c1.89-0.58,3.72-1.31,5.47-2.19L59.76,77.81L59.76,77.81z M49.92,81.32 c-2.33,0.51-4.74,0.82-7.2,0.91v-5.32c1.99-0.09,3.93-0.33,5.82-0.73L49.92,81.32L49.92,81.32z M39.54,82.23 c-2.46-0.09-4.87-0.4-7.2-0.91l1.38-5.14c1.89,0.4,3.83,0.65,5.82,0.73V82.23L39.54,82.23z M29.26,80.52 c-2.35-0.71-4.6-1.62-6.75-2.71l2.66-4.61c1.75,0.87,3.57,1.61,5.47,2.19L29.26,80.52L29.26,80.52z M19.73,76.26 c-2.09-1.28-4.06-2.74-5.88-4.35l3.77-3.77c1.49,1.3,3.09,2.47,4.78,3.51L19.73,76.26L19.73,76.26z M11.54,69.7 c-1.71-1.77-3.26-3.69-4.63-5.74l4.62-2.66c1.13,1.65,2.39,3.21,3.77,4.65L11.54,69.7L11.54,69.7z M5.25,61.25 c-1.21-2.15-2.23-4.43-3.04-6.8l5.15-1.38c0.68,1.92,1.52,3.77,2.5,5.52L5.25,61.25L5.25,61.25z M1.29,51.39 c-0.62-2.4-1.02-4.89-1.19-7.44h5.33c0.16,2.07,0.5,4.1,1,6.06L1.29,51.39L1.29,51.39z M0,40.77c0.02-2.59,0.28-5.12,0.76-7.58 l5.15,1.38c-0.37,2.01-0.58,4.08-0.6,6.2H0L0,40.77z M1.5,30.1c0.69-2.5,1.62-4.9,2.75-7.19l4.61,2.66 c-0.91,1.88-1.66,3.85-2.23,5.9L1.5,30.1L1.5,30.1z M5.77,20.11c1.33-2.24,2.87-4.33,4.59-6.27l3.77,3.77 c-1.4,1.6-2.65,3.33-3.75,5.16L5.77,20.11L5.77,20.11z M12.56,11.54c1.88-1.81,3.93-3.45,6.12-4.88l2.66,4.61 c-1.79,1.19-3.48,2.54-5.02,4.03L12.56,11.54L12.56,11.54z M21.41,5.03c2.29-1.25,4.71-2.29,7.24-3.1l1.38,5.14 c-2.07,0.68-4.07,1.53-5.96,2.56L21.41,5.03L21.41,5.03z M31.72,1.08c2.52-0.59,5.14-0.95,7.82-1.05v5.32 c-2.21,0.1-4.36,0.39-6.44,0.87L31.72,1.08L31.72,1.08z"/><path class="st0" d="M48.55,25v32.26h-8.91V36.16c-1.44,1.09-2.84,1.97-4.19,2.64c-1.35,0.67-3.04,1.32-5.07,1.94v-7.18 c3-0.98,5.33-2.14,6.99-3.5c1.66-1.37,2.96-3.05,3.9-5.05H48.55L48.55,25z"/><path class="st2" d="M47.04,24.03v32.26h-8.91V35.18c-1.44,1.09-2.84,1.97-4.19,2.64c-1.35,0.67-3.04,1.32-5.07,1.94v-7.18 c3-0.98,5.33-2.14,6.99-3.5c1.66-1.37,2.96-3.05,3.9-5.05H47.04L47.04,24.03z"/><path class="st5" d="M78.47,22.92c3.26,5.79,5.11,12.47,5.11,19.59c0,11.05-4.48,21.06-11.73,28.31 c-7.24,7.25-17.25,11.73-28.31,11.73c-0.88,0-1.76-0.03-2.62-0.09l0.04-0.19l0.17,0c22.72,0,41.13-18.42,41.13-41.13 c0-6.49-1.5-12.63-4.18-18.09C78.21,23,78.34,22.96,78.47,22.92L78.47,22.92z"/></g></svg>